# AST/ASF file generated using VICON BodyLanguage
# -----------------------------------------------
:version 1.10
:name VICON
:units
  mass 1.0
  length 0.45
  angle deg
:documentation
   .ast/.asf automatically generated from VICON data using
   VICON BodyBuilder and BodyLanguage model FoxedUp or BRILLIANT.MOD
:root
   order TX TY TZ RX RY RZ
   axis XYZ
   position 0 0 0  
   orientation 0 0 0 
:bonedata
  begin
     id 1 
     name lhipjoint
     direction 0.623529 -0.717805 0.309788 
     length 2.23224 
     axis 0 0 0  XYZ
  end
  begin
     id 2 
     name lfemur
     direction 0.34202 -0.939693 0  
     length 7.11402  
     axis 0 0 20  XYZ
    dof rx ry rz
    limits (-160.0 20.0)
           (-70.0 70.0)
           (-60.0 70.0)
  end
  begin
     id 3 
     name ltibia
     direction 0.34202 -0.939693 0   
     length 6.78496   
     axis 0 0 20   XYZ
    dof rx
    limits (-10.0 170.0)
  end
  begin
     id 4 
     name lfoot
     direction 0.125078 -0.343648 0.930732   
     length 1.84054   
     axis -90 7.62852e-016 20   XYZ
    dof rx rz
    limits (-45.0 90.0)
           (-70.0 20.0)
  end
  begin
     id 5 
     name ltoes
     direction 1.53565e-011 -4.21893e-011 1   
     length 0.916474   
     axis -90 7.62852e-016 20   XYZ
    dof rx
    limits (-90.0 20.0)
  end
  begin
     id 6 
     name rhipjoint
     direction -0.564688 -0.757748 0.327026   
     length 2.11457  
     axis 0 0 0  XYZ 
  end
  begin
     id 7 
     name rfemur
     direction -0.34202 -0.939693 0   
     length 7.14609   
     axis 0 0 -20   XYZ
    dof rx ry rz
    limits (-160.0 20.0)
           (-70.0 70.0)
           (-70.0 60.0)
  end
  begin
     id 8 
     name rtibia
     direction -0.34202 -0.939693 0   
     length 6.78101   
     axis 0 0 -20   XYZ
    dof rx
    limits (-10.0 170.0)
 end
 begin
     id 9 
     name rfoot
     direction -0.0992671 -0.272734 0.956955   
     length 1.96168  
     axis -90 -7.62852e-016 -20   XYZ
    dof rx rz
    limits (-45.0 90.0)
           (-20.0 70.0)
  end
  begin
     id 10 
     name rtoes
     direction -1.5356e-011 -4.21891e-011 1   
     length 0.982933   
     axis -90 -7.62852e-016 -20   XYZ
    dof rx
    limits (-90.0 20.0)
  end
  begin
     id 11 
     name lowerback
     direction -0.00596953 0.998668 0.0512524   
     length 1.87557   
     axis 0 0 0   XYZ
    dof rx ry rz
    limits (-20.0 45.0)
           (-30.0 30.0)
           (-30.0 30.0)
  end
  begin
     id 12 
     name upperback
     direction 0.00584879 0.999652 0.0257308   
     length 1.87883   
     axis 0 0 0   XYZ
    dof rx ry rz
    limits (-20.0 45.0)
           (-30.0 30.0)
           (-30.0 30.0)
  end
  begin
     id 13 
     name thorax
     direction 0.010104 0.999947 0.00178881   
     length 1.87779   
     axis 0 0 0   XYZ
    dof rx ry rz
    limits (-20.0 45.0)
           (-30.0 30.0)
           (-30.0 30.0)
  end
  begin
     id 14 
     name lowerneck
     direction 0.0120771 0.995934 -0.0892773   
     length 1.40897   
     axis 0 0 0   XYZ
    dof rx ry rz
    limits (-20.0 45.0)
           (-30.0 30.0)
           (-30.0 30.0)
  end
  begin
     id 15 
     name upperneck
     direction -0.030568 0.999465 -0.0116366   
     length 1.38661   
     axis 0 0 0   XYZ
    dof rx ry rz
    limits (-20.0 45.0)
           (-30.0 30.0)
           (-30.0 30.0)
  end
  begin
     id 16
     name head
     direction -0.0170715 0.999854 -0.00104426  
     length 1.47052  
     axis 0 0 0   XYZ
    dof rx ry rz
    limits (-20.0 45.0)
           (-30.0 30.0)
           (-30.0 30.0)
  end
  begin
     id 17 
     name lclavicle
     direction 0.977763 0.206143 0.038532  
     length 3.02424  
     axis 0 0 0   XYZ
    dof ry rz
    limits (-20.0 10.0)
           (0.0 20.0)
  end
  begin
     id 18 
     name lhumerus
     direction 1 -4.48965e-011 -2.62654e-027   
     length 4.68382   
     axis 180 -30 -90   XYZ
    dof rx ry rz
    limits (-60.0 90.0)
           (-90.0 90.0)
           (-90.0 90.0)
  end
  begin
     id 19
     name lradius
     direction 1 -4.48973e-011 -1.54954e-027   
     length 2.98124   
     axis 180 -30 -90   XYZ
    dof rx
    limits (-10.0 170.0)
  end
  begin
     id 20
     name lwrist
     direction 1 -4.48959e-011 7.20928e-028   
     length 1.49062   
     axis -5.52449e-016 90 90   XYZ
    dof ry
    limits (-180.0 0.0)
 end
  begin
     id 21 
     name lhand
     direction 1 -4.48971e-011 1.44186e-027   
     length 0.707595   
     axis -9.20027e-016 90 90   XYZ
    dof rx rz
    limits (-90.0 90.0)
           (-45.0 45.0)
  end
  begin
     id 22 
     name lfingers
     direction 1 -4.48985e-011 2.88371e-027   
     length 0.570481   
     axis -1.84005e-015 90 90   XYZ
    dof rx
    limits (0.0 90.0)
  end
  begin
     id 23
     name lthumb
     direction 0.707107 -6.34929e-011 0.707107   
     length 0.819101   
     axis -90 45 2.85299e-015   XYZ
    dof rx rz
    limits (-45.0 45.0)
           (-45.0 45.0)
  end
  begin
     id 24 
     name rclavicle
     direction -0.958661 0.284411 -0.00895327   
     length 3.11921  
     axis 0 0 0   XYZ 
    dof ry rz
    limits (-10.0 20.0)
           (-20.0 0.0)
  end
  begin
     id 25 
     name rhumerus
     direction -1 -4.48963e-011 -4.22193e-027  
     length 4.75876   
     axis 180 30 90   XYZ
    dof rx ry rz
    limits (-90.0 60.0)
           (-90.0 90.0)
           (-90.0 90.0)
  end
  begin
     id 26 
     name rradius
     direction -1 -4.48968e-011 -1.07616e-027   
     length 2.93293   
     axis 180 30 90   XYZ
    dof rx
    limits (-10.0 170.0)
  end
  begin
     id 27 
     name rwrist
     direction -1 -4.48965e-011 7.20928e-028   
     length 1.46647   
     axis -5.52449e-016 -90 -90   XYZ
    dof ry
    limits (-180.0 0.0)
  end
  begin
     id 28
     name rhand
     direction -1 -4.48971e-011 1.44186e-027   
     length 0.831748   
     axis -9.20027e-016 -90 -90   XYZ
    dof rx rz
    limits (-90.0 90.0)
           (-45.0 45.0)
  end
  begin
     id 29
     name rfingers
     direction -1 -4.48961e-011 2.88371e-027   
     length 0.670577   
     axis -1.84005e-015 -90 -90   XYZ
    dof rx
    limits (0.0 90.0)
  end
  begin
     id 30
     name rthumb
     direction -0.707107 -6.34929e-011 0.707107   
     length 0.962818   
     axis -90 -45 -2.85299e-015   XYZ
    dof rx rz
    limits (-45.0 45.0)
           (-45.0 45.0)
  end
:hierarchy
  begin
    root lhipjoint rhipjoint lowerback
    lhipjoint lfemur
    lfemur ltibia
    ltibia lfoot
    lfoot ltoes
    rhipjoint rfemur
    rfemur rtibia
    rtibia rfoot
    rfoot rtoes
    lowerback upperback
    upperback thorax
    thorax lowerneck lclavicle rclavicle
    lowerneck upperneck
    upperneck head
    lclavicle lhumerus
    lhumerus lradius
    lradius lwrist
    lwrist lhand lthumb
    lhand lfingers
    rclavicle rhumerus
    rhumerus rradius
    rradius rwrist
    rwrist rhand rthumb
    rhand rfingers
  end

#!OML:ASF E:\id_vita\Project 1\Capture day 1\Session 1\Female.ASF
:FULLY-SPECIFIED
:DEGREES
196
root -24.3504 16.3795 2.0515 -166.874 7.65541 -176.764
lowerback -14.7618 -1.34518 -4.42122
upperback -5.3022 -0.577244 3.99958
thorax 2.74903 0.0842361 6.67123
lowerneck 11.4319 5.8994 -3.48211
upperneck 4.81077 11.6005 30.0783
head -2.83996 6.54931 9.15378
rclavicle 3.35946e-014 -1.90833e-014
rhumerus 46.8221 -12.7046 -59.7519
rradius 136.893
rwrist -20.8169
rhand -18.3253 3.49837
rfingers 7.12502
rthumb 7.9564 -26.3319
lclavicle 3.35946e-014 -1.90833e-014
lhumerus -36.5804 29.1928 78.42
lradius 13.0379
lwrist -59.5792
lhand 8.06689 23.1015
lfingers 7.12502
lthumb 33.2906 50.0399
rfemur -18.9509 6.44181 19.2581
rtibia 23.3664
rfoot -8.35704 -13.3634
rtoes -21.3013
lfemur -19.5955 -13.4996 -16.8583
ltibia 29.0458
lfoot -22.8634 12.4899
ltoes 3.67288
197
root -24.3493 16.3808 2.05385 -166.683 7.68298 -176.753
lowerback -14.9156 -1.34793 -4.41416
upperback -5.34939 -0.563708 4.01692
thorax 2.7798 0.097342 6.68997
lowerneck 11.3704 5.85286 -3.40592
upperneck 4.87494 11.5064 29.9804
head -2.78007 6.51333 9.12152
rclavicle -1.28713e-014 -2.70347e-014
rhumerus 47.1185 -12.8985 -59.6988
rradius 137.1
rwrist -20.3537
rhand -18.0721 3.64377
rfingers 7.12502
rthumb 8.20071 -26.1771
lclavicle -1.28713e-014 -2.70347e-014
lhumerus -36.5839 28.9959 78.4758
lradius 13.0491
lwrist -59.3429
lhand 8.03541 22.7943
lfingers 7.12502
lthumb 33.2607 49.7391
rfemur -19.1524 6.64096 19.1861
rtibia 23.3614
rfoot -8.80236 -13.136
rtoes -20.8281
lfemur -19.8044 -13.1906 -16.8192
ltibia 29.0295
lfoot -22.8273 12.226
ltoes 3.25024
198
root -24.3503 16.3803 2.05547 -166.789 7.63681 -176.761
lowerback -14.7893 -1.3347 -4.41273
upperback -5.3126 -0.560084 4.02909
thorax 2.75038 0.0951954 6.70155
lowerneck 11.2602 5.81419 -3.50187
upperneck 4.90963 11.4386 30.069
head -2.75292 6.49261 9.18197
rclavicle -3.23025e-015 -3.81667e-014
rhumerus 47.4208 -13.1234 -59.6615
rradius 137.191
rwrist -19.9238
rhand -17.2354 4.28952
rfingers 7.12502
rthumb 9.00821 -25.4981
lclavicle -3.23025e-015 -3.81667e-014
lhumerus -36.5922 28.9633 78.4327
lradius 13.0128
lwrist -59.3124
lhand 8.18854 22.6164
lfingers 7.12502
lthumb 33.4063 49.53
rfemur -19.0345 6.66336 19.1866
rtibia 23.3449
rfoot -8.89661 -13.2624
rtoes -21.3594
lfemur -19.6906 -13.4319 -16.8296
ltibia 29.0238
lfoot -22.8509 12.3143
ltoes 3.20213
199
root -24.3486 16.3802 2.05608 -166.778 7.67013 -176.73
lowerback -14.7986 -1.30698 -4.42879
upperback -5.29302 -0.522798 4.07092
thorax 2.7708 0.112844 6.76304
lowerneck 11.1856 5.77515 -3.6181
upperneck 4.90545 11.3725 30.146
head -2.74368 6.46433 9.23996
rclavicle -8.89561e-015 3.69739e-014
rhumerus 47.8619 -13.3821 -59.6748
rradius 137.158
rwrist -19.445
rhand -16.3522 5.20387
rfingers 7.12502
rthumb 9.86038 -24.5452
lclavicle -8.89561e-015 3.69739e-014
lhumerus -36.669 29.0259 78.35
lradius 12.9855
lwrist -59.459
lhand 8.26832 22.4758
lfingers 7.12502
lthumb 33.4821 49.373
rfemur -19.0247 6.67847 19.2349
rtibia 23.2923
rfoot -8.90814 -13.325
rtoes -21.8794
lfemur -19.7054 -13.2856 -16.7982
ltibia 29.0534
lfoot -22.9622 12.1721
ltoes 3.37624
200
root -24.3489 16.3786 2.05824 -166.792 7.67248 -176.718
lowerback -14.7661 -1.27354 -4.42878
upperback -5.29265 -0.479589 4.08673
thorax 2.74737 0.135361 6.78719
lowerneck 11.2396 5.73028 -3.60122
upperneck 4.82937 11.3315 30.1315
head -2.76576 6.43367 9.23389
rclavicle -1.56543e-014 2.18663e-014
rhumerus 48.2943 -13.7112 -59.6804
rradius 137.208
rwrist -18.8898
rhand -15.4309 5.92101
rfingers 7.12502
rthumb 10.7492 -23.784
lclavicle -1.56543e-014 2.18663e-014
lhumerus -36.7888 29.0926 78.2068
lradius 12.9338
lwrist -59.5096
lhand 8.21202 22.4784
lfingers 7.12502
lthumb 33.4286 49.3872
rfemur -18.9858 6.60407 19.2802
rtibia 23.2389
rfoot -8.70925 -13.3056
rtoes -22.7192
lfemur -19.722 -13.201 -16.7911
ltibia 29.0861
lfoot -22.9545 12.0892
ltoes 3.69094
201
root -24.3505 16.3771 2.06163 -166.785 7.67486 -176.75
lowerback -14.7259 -1.26878 -4.47527
upperback -5.31515 -0.465156 4.12724
thorax 2.70019 0.147016 6.85991
lowerneck 11.333 5.73835 -3.51702
upperneck 4.75545 11.3355 29.9577
head -2.78315 6.41461 9.15398
rclavicle -2.33572e-014 2.06736e-014
rhumerus 48.5895 -13.8197 -59.4765
rradius 137.316
rwrist -18.4405
rhand -15.2025 6.40152
rfingers 7.12502
rthumb 10.9694 -23.2919
lclavicle -2.33572e-014 2.06736e-014
lhumerus -36.9679 29.2637 78.0173
lradius 12.8944
lwrist -59.5648
lhand 8.00742 22.5645
lfingers 7.12502
lthumb 33.2341 49.515
rfemur -18.988 6.64118 19.232
rtibia 23.1892
rfoot -8.55498 -13.4174
rtoes -23.3997
lfemur -19.7757 -13.3826 -16.8017
ltibia 29.1249
lfoot -22.9185 12.2691
ltoes 3.95141
